# xmcd CD database file generated by MAGIX_Freedb v0.9beta0
# 
# Track frame offsets:
#      150
#      13865
#      31915
#      86260
#      102040
#      115325
#      130730
#      144237
#      156750
#      193862
# 
# Disc length: 2764 seconds
# 
# Revision: 2 
# Processed by: cddbd v1.4PL0 Copyright (c) Steve Scherf et al.
# Submitted via: MAGIX_Freedb v0.9beta0
# 
DISCID=770aca0a
DTITLE=Alpen Rebellen - Wir San Fesche Steirer
DYEAR=2002
DGENRE=
TTITLE0=Alpen Rebellen - Wir san fesche Steirer
TTITLE1=Alpen Rebellen - Siesta
TTITLE2=Alpen Rebellen - Logo-Logo Medley
TTITLE3=Alpen Rebellen - Sierra Madre
TTITLE4=Alpen Rebellen - Volksmusik - live
TTITLE5=Alpen Rebellen - Träume der Südsee
TTITLE6=Alpen Rebellen - Alimento
TTITLE7=Alpen Rebellen - Hans, bleib do
TTITLE8=Alpen Rebellen - Ole - Ole - Medley
TTITLE9=Alpen Rebellen - Mein Freund, der Toni
EXTD=
EXTT0=
EXTT1=
EXTT2=
EXTT3=
EXTT4=
EXTT5=
EXTT6=
EXTT7=
EXTT8=
EXTT9=
PLAYORDER=
